<?xml version="1.0" encoding="iso-8859-1"?>
<!-- Generator: Adobe Illustrator 18.1.1, SVG Export Plug-In . SVG Version: 6.00 Build 0)  -->
<svg version="1.1" id="Capa_1" xmlns="http://www.w3.org/2000/svg" xmlns:xlink="http://www.w3.org/1999/xlink" x="0px" y="0px"
	 viewBox="0 0 525.153 525.153" style="enable-background:new 0 0 525.153 525.153;" xml:space="preserve">
<g>
	<path d="M381.917,119.341c-79.014,0-143.213,64.222-143.213,143.235s64.2,143.235,143.213,143.235
		c79.035,0,143.235-64.222,143.235-143.235S460.953,119.341,381.917,119.341z M95.468,167.108C42.734,167.108,0,209.82,0,262.576
		s42.734,95.468,95.468,95.468c52.756,0,95.49-42.712,95.49-95.468S148.224,167.108,95.468,167.108z M95.468,310.321
		c-26.258,0-47.745-21.487-47.745-47.745s21.487-47.745,47.745-47.745c26.28,0,47.767,21.488,47.767,47.745
		C143.235,288.812,121.748,310.321,95.468,310.321z"/>
</g>
<g>
</g>
<g>
</g>
<g>
</g>
<g>
</g>
<g>
</g>
<g>
</g>
<g>
</g>
<g>
</g>
<g>
</g>
<g>
</g>
<g>
</g>
<g>
</g>
<g>
</g>
<g>
</g>
<g>
</g>
</svg>
